<svg width="128" height="128" viewBox="0 0 128 128" fill="none" xmlns="http://www.w3.org/2000/svg">
<rect x="2.5" y="2.5" width="123" height="123" rx="7.5" fill="url(#paint0_linear_14_16)" stroke="#D1D1D1" stroke-width="5"/>
<rect x="23.3594" y="27.3438" width="81.2812" height="56.5781" fill="url(#paint1_linear_14_16)"/>
<path d="M98 25.75H30C25.3056 25.75 21.5 29.5556 21.5 34.25V76.75C21.5 81.4444 25.3056 85.25 30 85.25H98C102.694 85.25 106.5 81.4444 106.5 76.75V34.25C106.5 29.5556 102.694 25.75 98 25.75Z" stroke="white" stroke-width="10.6667" stroke-linecap="round" stroke-linejoin="round"/>
<path d="M47 102.25H81M64 85.25V102.25" stroke="white" stroke-width="10.6667" stroke-linecap="round" stroke-linejoin="round"/>
<path d="M52.3996 64.2743C52.3778 64.2376 52.3667 64.1956 52.3676 64.1529C52.3685 64.1103 52.3812 64.0688 52.4045 64.033C52.4277 63.9972 52.4605 63.9687 52.499 63.9505C52.5376 63.9324 52.5805 63.9254 52.6229 63.9304L54.8598 64.1941C55.007 64.2115 55.1563 64.1929 55.2948 64.1398C55.4333 64.0868 55.5568 64.0008 55.6547 63.8894L57.1428 62.197C57.1709 62.1649 57.2075 62.1413 57.2484 62.1289C57.2892 62.1165 57.3327 62.1158 57.374 62.1269C57.4152 62.1379 57.4525 62.1603 57.4817 62.1914C57.5109 62.2226 57.5308 62.2613 57.5392 62.3031L57.9778 64.5108C58.0067 64.6565 58.0706 64.793 58.1641 64.9084C58.2575 65.0239 58.3776 65.1149 58.514 65.1735L60.5821 66.0626C60.6216 66.0793 60.6556 66.1068 60.6802 66.1419C60.7048 66.1771 60.719 66.2184 60.7212 66.2612C60.7235 66.3041 60.7136 66.3467 60.6928 66.3842C60.672 66.4217 60.6411 66.4526 60.6036 66.4733L58.639 67.5743C58.5096 67.6468 58.3997 67.7497 58.3189 67.8741C58.2381 67.9986 58.1888 68.1408 58.1752 68.2885L57.9687 70.5307C57.9649 70.5733 57.9492 70.614 57.9234 70.6482C57.8976 70.6824 57.8627 70.7086 57.8227 70.7239C57.7827 70.7393 57.7393 70.7431 57.6972 70.7349C57.6552 70.7267 57.6163 70.7069 57.585 70.6778L55.9317 69.1507C55.8226 69.0498 55.6906 68.977 55.5471 68.9386C55.4035 68.9002 55.2528 68.8973 55.1079 68.9302L52.913 69.4276C52.8712 69.4372 52.8276 69.435 52.7871 69.421C52.7466 69.4071 52.7108 69.382 52.6838 69.3487C52.6568 69.3154 52.6397 69.2752 52.6345 69.2327C52.6292 69.1902 52.636 69.147 52.6541 69.1082L53.595 67.0609C53.6572 66.9261 53.6856 66.7783 53.6779 66.63C53.6701 66.4818 53.6264 66.3377 53.5506 66.2101L52.3996 64.2743Z" stroke="url(#paint2_linear_14_16)" stroke-opacity="0.78" stroke-width="2" stroke-linecap="round" stroke-linejoin="round"/>
<path d="M54.9831 46.5801C54.9745 46.5384 54.9777 46.495 54.9924 46.455C55.0071 46.415 55.0327 46.3799 55.0663 46.3536C55.0999 46.3274 55.1402 46.311 55.1826 46.3064C55.225 46.3019 55.2678 46.3092 55.3062 46.3277L57.3354 47.3053C57.4689 47.3697 57.6162 47.4007 57.7644 47.3956C57.9126 47.3905 58.0573 47.3495 58.1861 47.276L60.1442 46.1603C60.1813 46.1391 60.2235 46.1287 60.2662 46.1303C60.3088 46.1319 60.3502 46.1454 60.3856 46.1692C60.421 46.1931 60.449 46.2264 60.4665 46.2654C60.484 46.3043 60.4902 46.3474 60.4844 46.3897L60.1805 48.6199C60.1603 48.7671 60.1764 48.9169 60.2271 49.0565C60.2778 49.1961 60.3618 49.3212 60.4717 49.4211L62.1376 50.935C62.1695 50.9637 62.1927 51.0007 62.2045 51.042C62.2163 51.0832 62.2163 51.1269 62.2045 51.1681C62.1927 51.2094 62.1695 51.2464 62.1376 51.2751C62.1057 51.3038 62.0664 51.3229 62.0242 51.3304L59.8082 51.7317C59.6622 51.7582 59.5249 51.8197 59.408 51.911C59.2911 52.0024 59.1981 52.1208 59.1371 52.256L58.2119 54.3088C58.1945 54.3479 58.1663 54.3813 58.1308 54.4052C58.0953 54.4291 58.0538 54.4426 58.011 54.444C57.9682 54.4455 57.9259 54.4349 57.8888 54.4135C57.8517 54.3921 57.8213 54.3608 57.8012 54.323L56.7352 52.3409C56.6649 52.21 56.5638 52.0982 56.4406 52.0151C56.3174 51.932 56.1758 51.8802 56.0281 51.8641L53.7908 51.6199C53.7482 51.6154 53.7077 51.599 53.6739 51.5727C53.6401 51.5463 53.6145 51.5109 53.5998 51.4707C53.5851 51.4304 53.582 51.3869 53.5909 51.3449C53.5998 51.303 53.6203 51.2644 53.65 51.2336L55.2062 49.6042C55.3088 49.497 55.3839 49.3664 55.4248 49.2237C55.4657 49.0811 55.4713 48.9306 55.4411 48.7853L54.9831 46.5801Z" stroke="url(#paint3_linear_14_16)" stroke-opacity="0.78" stroke-width="2" stroke-linecap="round" stroke-linejoin="round"/>
<path d="M70.6447 38.4543C70.6595 38.4143 70.6852 38.3793 70.7189 38.3531C70.7526 38.327 70.7929 38.3108 70.8353 38.3063C70.8777 38.3018 70.9205 38.3093 70.9589 38.3279C70.9973 38.3465 71.0297 38.3754 71.0525 38.4115L72.2552 40.3158C72.3344 40.4412 72.4428 40.5455 72.5712 40.6197C72.6996 40.6939 72.8441 40.7358 72.9923 40.7418L75.244 40.8333C75.2867 40.8349 75.328 40.8485 75.3634 40.8725C75.3987 40.8964 75.4266 40.9298 75.444 40.9688C75.4614 41.0077 75.4675 41.0508 75.4617 41.0931C75.4558 41.1354 75.4383 41.1752 75.411 41.2081L73.9714 42.9383C73.8763 43.0525 73.8105 43.188 73.7796 43.3333C73.7486 43.4785 73.7535 43.6291 73.7938 43.7721L74.4044 45.9388C74.4162 45.98 74.4162 46.0237 74.4044 46.0649C74.3926 46.1061 74.3694 46.1432 74.3375 46.1719C74.3056 46.2006 74.2663 46.2198 74.2241 46.2272C74.1819 46.2346 74.1384 46.23 74.0986 46.2139L72.0067 45.38C71.8689 45.3251 71.7198 45.3045 71.5722 45.32C71.4247 45.3355 71.2831 45.3867 71.1597 45.469L69.2873 46.7196C69.2518 46.7435 69.2103 46.7569 69.1675 46.7584C69.1247 46.7598 69.0823 46.7492 69.0453 46.7278C69.0082 46.7064 68.9779 46.675 68.9578 46.6372C68.9377 46.5994 68.9286 46.5567 68.9315 46.514L69.0778 44.2682C69.0876 44.1199 69.0611 43.9715 69.0006 43.8358C68.9401 43.7 68.8475 43.5811 68.7308 43.4891L66.9629 42.0964C66.9291 42.07 66.9035 42.0347 66.8888 41.9944C66.8741 41.9542 66.8711 41.9106 66.88 41.8687C66.8889 41.8268 66.9094 41.7882 66.9391 41.7574C66.9688 41.7265 67.0067 41.7046 67.0482 41.6942L69.2314 41.1371C69.3752 41.1006 69.5081 41.0296 69.6184 40.9303C69.7287 40.831 69.8132 40.7063 69.8646 40.5671L70.6447 38.4543Z" stroke="url(#paint4_linear_14_16)" stroke-opacity="0.78" stroke-width="2" stroke-linecap="round" stroke-linejoin="round"/>
<path d="M67.9005 59.8232C67.8649 59.7998 67.8365 59.7669 67.8186 59.7282C67.8007 59.6895 67.7939 59.6465 67.7991 59.6042C67.8043 59.5619 67.8213 59.5219 67.848 59.4886C67.8747 59.4554 67.9102 59.4303 67.9505 59.4162L70.0766 58.6727C70.2166 58.6238 70.3426 58.5416 70.4438 58.4332C70.545 58.3248 70.6183 58.1934 70.6574 58.0504L71.2531 55.8769C71.2643 55.8357 71.2868 55.7985 71.3181 55.7695C71.3494 55.7404 71.3882 55.7207 71.4301 55.7125C71.472 55.7044 71.5154 55.7081 71.5553 55.7233C71.5951 55.7385 71.63 55.7645 71.6558 55.7985L73.0179 57.5905C73.1078 57.7088 73.225 57.8034 73.3596 57.8662C73.4942 57.929 73.642 57.9581 73.7904 57.951L76.0389 57.8436C76.0817 57.8413 76.1243 57.8511 76.1618 57.8719C76.1993 57.8927 76.2302 57.9236 76.251 57.9611C76.2718 57.9986 76.2816 58.0412 76.2793 58.0841C76.2771 58.1269 76.2628 58.1682 76.2382 58.2033L74.9551 60.0541C74.8706 60.176 74.8169 60.3166 74.7989 60.4639C74.7808 60.6111 74.7988 60.7606 74.8513 60.8993L75.6486 63.0051C75.6639 63.0451 75.6676 63.0886 75.6594 63.1306C75.6512 63.1726 75.6314 63.2115 75.6021 63.2428C75.5729 63.2741 75.5355 63.2966 75.4942 63.3077C75.4528 63.3187 75.4092 63.318 75.3682 63.3055L73.2129 62.6577C73.0706 62.6149 72.92 62.6073 72.7742 62.6357C72.6283 62.6641 72.4916 62.7276 72.3757 62.8207L70.621 64.2299C70.5877 64.2569 70.5475 64.274 70.505 64.2792C70.4625 64.2844 70.4193 64.2776 70.3805 64.2595C70.3416 64.2414 70.3087 64.2128 70.2853 64.1769C70.2619 64.1409 70.2491 64.0992 70.2483 64.0563L70.1966 61.8038C70.1934 61.6554 70.1541 61.51 70.0821 61.3802C70.0102 61.2504 69.9077 61.14 69.7836 61.0586L67.9005 59.8232Z" stroke="url(#paint5_linear_14_16)" stroke-opacity="0.78" stroke-width="2" stroke-linecap="round" stroke-linejoin="round"/>
<path d="M86.6252 61.4657C86.6225 61.4232 86.6317 61.3807 86.6519 61.3431C86.672 61.3055 86.7022 61.2743 86.7392 61.253C86.7761 61.2316 86.8182 61.2211 86.8609 61.2224C86.9035 61.2238 86.9449 61.237 86.9804 61.2607L88.8537 62.5112C88.977 62.5936 89.1185 62.6448 89.266 62.6603C89.4134 62.6759 89.5625 62.6554 89.7003 62.6006L91.7945 61.7683C91.8342 61.7524 91.8775 61.748 91.9195 61.7555C91.9615 61.763 92.0006 61.7821 92.0324 61.8107C92.0641 61.8393 92.0872 61.8761 92.0991 61.9171C92.111 61.9581 92.1111 62.0017 92.0995 62.0427L91.4881 64.209C91.4477 64.3519 91.4427 64.5025 91.4736 64.6478C91.5044 64.7931 91.5701 64.9287 91.665 65.0429L93.1041 66.7739C93.1316 66.8067 93.1494 66.8467 93.1554 66.8891C93.1614 66.9316 93.1553 66.9749 93.1378 67.0141C93.1204 67.0533 93.0923 67.0867 93.0567 67.1107C93.0212 67.1347 92.9796 67.1482 92.9367 67.1496L90.6864 67.2387C90.5382 67.2445 90.3936 67.2864 90.2651 67.3606C90.1366 67.4347 90.0281 67.539 89.9489 67.6645L88.747 69.5685C88.7243 69.6048 88.6918 69.634 88.6533 69.6527C88.6148 69.6714 88.5718 69.679 88.5292 69.6745C88.4866 69.67 88.4462 69.6536 88.4124 69.6273C88.3787 69.6009 88.353 69.5656 88.3383 69.5254L87.5586 67.4142C87.5072 67.2748 87.4226 67.15 87.3121 67.0506C87.2017 66.9512 87.0687 66.8802 86.9246 66.8437L84.7431 66.2905C84.7016 66.2801 84.6637 66.2583 84.634 66.2274C84.6042 66.1966 84.5837 66.1581 84.5748 66.1161C84.5658 66.0742 84.5689 66.0307 84.5835 65.9904C84.5981 65.9501 84.6238 65.9147 84.6575 65.8883L86.4253 64.4914C86.5419 64.3995 86.6343 64.2806 86.6947 64.1451C86.7551 64.0095 86.7816 63.8612 86.7719 63.7131L86.6252 61.4657Z" stroke="url(#paint6_linear_14_16)" stroke-opacity="0.78" stroke-width="2" stroke-linecap="round" stroke-linejoin="round"/>
<path d="M87.386 42.9967C87.4029 42.9576 87.4304 42.9239 87.4654 42.8996C87.5004 42.8752 87.5415 42.8611 87.5841 42.8589C87.6267 42.8567 87.669 42.8664 87.7064 42.8869C87.7437 42.9075 87.7746 42.9381 87.7955 42.9753L88.8969 44.94C88.9694 45.0694 89.0722 45.1792 89.1966 45.26C89.3209 45.3408 89.463 45.3902 89.6107 45.404L91.8545 45.6131C91.897 45.617 91.9376 45.6328 91.9717 45.6585C92.0057 45.6843 92.0319 45.719 92.0472 45.7589C92.0625 45.7988 92.0663 45.8421 92.0583 45.884C92.0503 45.926 92.0306 45.9648 92.0017 45.9962L90.4735 47.6487C90.3726 47.7577 90.2998 47.8896 90.2613 48.0331C90.2228 48.1765 90.2198 48.3272 90.2525 48.472L90.7488 50.6677C90.7585 50.7095 90.7562 50.7531 90.7422 50.7937C90.7283 50.8342 90.7032 50.87 90.6699 50.897C90.6365 50.924 90.5963 50.9411 90.5537 50.9463C90.5112 50.9515 90.468 50.9446 90.4291 50.9265L88.3837 49.9842C88.2489 49.9222 88.1011 49.8938 87.953 49.9016C87.8048 49.9093 87.6608 49.953 87.5332 50.0288L85.5979 51.1797C85.5612 51.2017 85.519 51.2129 85.4762 51.2121C85.4334 51.2113 85.3917 51.1985 85.3558 51.1752C85.3199 51.1518 85.2912 51.1189 85.2731 51.0801C85.255 51.0413 85.2482 50.9982 85.2534 50.9557L85.517 48.7206C85.5345 48.5731 85.5158 48.4235 85.4625 48.2848C85.4093 48.146 85.323 48.0224 85.2112 47.9245L83.5187 46.4412C83.4863 46.4131 83.4625 46.3764 83.45 46.3354C83.4375 46.2945 83.4367 46.2508 83.4478 46.2094C83.4588 46.168 83.4813 46.1305 83.5126 46.1013C83.544 46.0721 83.5829 46.0522 83.6249 46.044L85.8342 45.6019C85.9798 45.5729 86.1162 45.509 86.2315 45.4156C86.3469 45.3222 86.4378 45.2021 86.4964 45.0658L87.386 42.9967Z" stroke="url(#paint7_linear_14_16)" stroke-opacity="0.78" stroke-width="2" stroke-linecap="round" stroke-linejoin="round"/>
<path d="M38.8877 54.2325C38.8983 54.1912 38.9202 54.1536 38.951 54.1241C38.9817 54.0946 39.0201 54.0742 39.0618 54.0654C39.1035 54.0565 39.1469 54.0595 39.187 54.0739C39.2271 54.0884 39.2624 54.1138 39.2888 54.1472L40.6841 55.9154C40.7759 56.0319 40.8946 56.1243 41.0301 56.1847C41.1655 56.2451 41.3136 56.2716 41.4616 56.2621L43.7106 56.1176C43.7532 56.1148 43.7957 56.124 43.8333 56.1441C43.871 56.1643 43.9023 56.1945 43.9236 56.2315C43.945 56.2684 43.9556 56.3107 43.9542 56.3533C43.9528 56.396 43.9395 56.4374 43.9158 56.4729L42.6649 58.3442C42.5823 58.4676 42.531 58.6093 42.5155 58.757C42.4999 58.9047 42.5205 59.054 42.5755 59.1919L43.4092 61.2829C43.4252 61.3227 43.4298 61.3662 43.4224 61.4084C43.4149 61.4506 43.3958 61.4899 43.3671 61.5218C43.3384 61.5537 43.3013 61.5768 43.2601 61.5886C43.2188 61.6004 43.1751 61.6004 43.1339 61.5886L40.9662 60.9779C40.8234 60.9377 40.673 60.9328 40.5279 60.9636C40.3828 60.9944 40.2473 61.0601 40.1332 61.1549L38.4018 62.5944C38.3689 62.6219 38.329 62.6396 38.2866 62.6455C38.2442 62.6514 38.201 62.6453 38.1619 62.6278C38.1228 62.6104 38.0894 62.5824 38.0654 62.5469C38.0415 62.5114 38.028 62.4699 38.0264 62.4271L37.9372 60.1783C37.9314 60.0298 37.8895 59.885 37.8152 59.7563C37.7409 59.6276 37.6363 59.519 37.5106 59.4398L35.6068 58.2395C35.5705 58.2168 35.5413 58.1843 35.5225 58.1458C35.5037 58.1073 35.4961 58.0643 35.5006 58.0217C35.505 57.9791 35.5214 57.9385 35.5477 57.9048C35.5741 57.871 35.6094 57.8453 35.6497 57.8306L37.7626 57.0483C37.9019 56.9969 38.0265 56.9125 38.1259 56.8022C38.2252 56.6919 38.2962 56.5591 38.3328 56.4152L38.8877 54.2325Z" stroke="url(#paint8_linear_14_16)" stroke-opacity="0.78" stroke-width="2" stroke-linecap="round" stroke-linejoin="round"/>
<path d="M46.8071 40.9175C46.8464 40.9011 46.8896 40.896 46.9317 40.9028C46.9738 40.9096 47.0131 40.928 47.0453 40.956C47.0775 40.984 47.1012 41.0204 47.1138 41.0611C47.1264 41.1019 47.1274 41.1453 47.1166 41.1866L46.5441 43.365C46.5063 43.5084 46.504 43.6588 46.5373 43.8033C46.5706 43.9478 46.6385 44.0821 46.7352 44.1945L48.204 45.9037C48.2318 45.9361 48.2501 45.9755 48.2567 46.0177C48.2633 46.0599 48.258 46.1031 48.2413 46.1424C48.2246 46.1817 48.1973 46.2155 48.1624 46.2401C48.1275 46.2647 48.0864 46.279 48.0438 46.2815L45.7965 46.4086C45.6482 46.417 45.5042 46.4613 45.3768 46.5377C45.2495 46.6141 45.1427 46.7204 45.0656 46.8474L43.8974 48.7716C43.8753 48.8083 43.8434 48.8382 43.8051 48.8576C43.7669 48.8771 43.724 48.8854 43.6813 48.8817C43.6386 48.8779 43.5978 48.8623 43.5635 48.8365C43.5293 48.8106 43.503 48.7757 43.4877 48.7357L42.6708 46.637C42.617 46.4987 42.5304 46.3756 42.4184 46.2783C42.3065 46.181 42.1725 46.1123 42.0281 46.0783L39.8365 45.5618C39.7948 45.5521 39.7567 45.5308 39.7264 45.5005C39.6962 45.4702 39.675 45.432 39.6654 45.3903C39.6558 45.3486 39.6581 45.305 39.672 45.2645C39.686 45.224 39.711 45.1883 39.7442 45.1613L41.4865 43.7367C41.6016 43.6427 41.6921 43.5221 41.7501 43.3853C41.8081 43.2485 41.832 43.0996 41.8196 42.9515L41.6324 40.7088C41.6287 40.6661 41.637 40.6232 41.6565 40.585C41.6759 40.5468 41.7057 40.5149 41.7424 40.4928C41.7792 40.4707 41.8214 40.4594 41.8642 40.4601C41.907 40.4608 41.9488 40.4736 41.9848 40.4969L43.8812 41.7136C44.006 41.7939 44.1485 41.8426 44.2963 41.8555C44.4442 41.8685 44.593 41.8453 44.7299 41.7879L46.8071 40.9175Z" stroke="url(#paint9_linear_14_16)" stroke-opacity="0.78" stroke-width="2" stroke-linecap="round" stroke-linejoin="round"/>
<defs>
<linearGradient id="paint0_linear_14_16" x1="0" y1="0" x2="150.261" y2="73.0578" gradientUnits="userSpaceOnUse">
<stop stop-color="#35005E"/>
<stop offset="1" stop-color="#100031"/>
</linearGradient>
<linearGradient id="paint1_linear_14_16" x1="23.3594" y1="27.3438" x2="102.648" y2="82.7266" gradientUnits="userSpaceOnUse">
<stop stop-color="#35005E"/>
<stop offset="1" stop-color="#100031"/>
</linearGradient>
<linearGradient id="paint2_linear_14_16" x1="52.4043" y1="64.0333" x2="59.3084" y2="68.5169" gradientUnits="userSpaceOnUse">
<stop stop-color="#FBFBFB"/>
<stop offset="1" stop-color="#B49FFF"/>
</linearGradient>
<linearGradient id="paint3_linear_14_16" x1="55.066" y1="46.3539" x2="60.1343" y2="52.841" gradientUnits="userSpaceOnUse">
<stop stop-color="#FBFBFB"/>
<stop offset="1" stop-color="#B49FFF"/>
</linearGradient>
<linearGradient id="paint4_linear_14_16" x1="70.8349" y1="38.3063" x2="71.6954" y2="46.4935" gradientUnits="userSpaceOnUse">
<stop stop-color="#FBFBFB"/>
<stop offset="1" stop-color="#B49FFF"/>
</linearGradient>
<linearGradient id="paint5_linear_14_16" x1="67.7991" y1="59.6046" x2="75.97" y2="60.6079" gradientUnits="userSpaceOnUse">
<stop stop-color="#FBFBFB"/>
<stop offset="1" stop-color="#B49FFF"/>
</linearGradient>
<linearGradient id="paint6_linear_14_16" x1="86.7388" y1="61.2532" x2="90.855" y2="68.3825" gradientUnits="userSpaceOnUse">
<stop stop-color="#FBFBFB"/>
<stop offset="1" stop-color="#B49FFF"/>
</linearGradient>
<linearGradient id="paint7_linear_14_16" x1="87.5837" y1="42.8589" x2="88.0146" y2="51.0799" gradientUnits="userSpaceOnUse">
<stop stop-color="#FBFBFB"/>
<stop offset="1" stop-color="#B49FFF"/>
</linearGradient>
<linearGradient id="paint8_linear_14_16" x1="39.0615" y1="54.0654" x2="40.773" y2="62.1178" gradientUnits="userSpaceOnUse">
<stop stop-color="#FBFBFB"/>
<stop offset="1" stop-color="#B49FFF"/>
</linearGradient>
<linearGradient id="paint9_linear_14_16" x1="47.045" y1="40.9557" x2="41.6442" y2="47.1687" gradientUnits="userSpaceOnUse">
<stop stop-color="#FBFBFB"/>
<stop offset="1" stop-color="#B49FFF"/>
</linearGradient>
</defs>
</svg>
