<svg width="582" height="128" viewBox="0 0 582 128" fill="none" xmlns="http://www.w3.org/2000/svg">
<rect x="2.5" y="2.5" width="123" height="123" rx="7.5" fill="url(#paint0_linear_13_46)" stroke="#D1D1D1" stroke-width="5"/>
<rect x="23.3594" y="27.3438" width="81.2812" height="56.5781" fill="url(#paint1_linear_13_46)"/>
<path d="M98 25.75H30C25.3056 25.75 21.5 29.5556 21.5 34.25V76.75C21.5 81.4444 25.3056 85.25 30 85.25H98C102.694 85.25 106.5 81.4444 106.5 76.75V34.25C106.5 29.5556 102.694 25.75 98 25.75Z" stroke="white" stroke-width="10.6667" stroke-linecap="round" stroke-linejoin="round"/>
<path d="M47 102.25H81M64 85.25V102.25" stroke="white" stroke-width="10.6667" stroke-linecap="round" stroke-linejoin="round"/>
<path d="M52.3996 64.2743C52.3778 64.2376 52.3667 64.1956 52.3676 64.1529C52.3685 64.1103 52.3812 64.0688 52.4045 64.033C52.4277 63.9972 52.4605 63.9687 52.499 63.9505C52.5376 63.9324 52.5805 63.9254 52.6229 63.9304L54.8598 64.1941C55.007 64.2115 55.1563 64.1929 55.2948 64.1398C55.4333 64.0868 55.5568 64.0008 55.6547 63.8894L57.1428 62.197C57.1709 62.1649 57.2075 62.1413 57.2484 62.1289C57.2892 62.1165 57.3327 62.1158 57.374 62.1269C57.4152 62.1379 57.4525 62.1603 57.4817 62.1914C57.5109 62.2226 57.5308 62.2613 57.5392 62.3031L57.9778 64.5108C58.0067 64.6565 58.0706 64.793 58.1641 64.9084C58.2575 65.0239 58.3776 65.1149 58.514 65.1735L60.5821 66.0626C60.6216 66.0793 60.6556 66.1068 60.6802 66.1419C60.7048 66.1771 60.719 66.2184 60.7212 66.2612C60.7235 66.3041 60.7136 66.3467 60.6928 66.3842C60.672 66.4217 60.6411 66.4526 60.6036 66.4733L58.639 67.5743C58.5096 67.6468 58.3997 67.7497 58.3189 67.8741C58.2381 67.9986 58.1888 68.1408 58.1752 68.2885L57.9687 70.5307C57.9649 70.5733 57.9492 70.614 57.9234 70.6482C57.8976 70.6824 57.8627 70.7086 57.8227 70.7239C57.7827 70.7393 57.7393 70.7431 57.6972 70.7349C57.6552 70.7267 57.6163 70.7069 57.585 70.6778L55.9317 69.1507C55.8226 69.0498 55.6906 68.977 55.5471 68.9386C55.4035 68.9002 55.2528 68.8973 55.1079 68.9302L52.913 69.4276C52.8712 69.4372 52.8276 69.435 52.7871 69.421C52.7466 69.4071 52.7108 69.382 52.6838 69.3487C52.6568 69.3154 52.6397 69.2752 52.6345 69.2327C52.6292 69.1902 52.636 69.147 52.6541 69.1082L53.595 67.0609C53.6572 66.9261 53.6856 66.7783 53.6779 66.63C53.6701 66.4818 53.6264 66.3377 53.5506 66.2101L52.3996 64.2743Z" stroke="url(#paint2_linear_13_46)" stroke-opacity="0.78" stroke-width="2" stroke-linecap="round" stroke-linejoin="round"/>
<path d="M54.9831 46.5801C54.9745 46.5384 54.9777 46.495 54.9924 46.455C55.0071 46.415 55.0327 46.3799 55.0663 46.3536C55.0999 46.3274 55.1402 46.311 55.1826 46.3064C55.225 46.3019 55.2678 46.3092 55.3062 46.3277L57.3354 47.3053C57.4689 47.3697 57.6162 47.4007 57.7644 47.3956C57.9126 47.3905 58.0573 47.3495 58.1861 47.276L60.1442 46.1603C60.1813 46.1391 60.2235 46.1287 60.2662 46.1303C60.3088 46.1319 60.3502 46.1454 60.3856 46.1692C60.421 46.1931 60.449 46.2264 60.4665 46.2654C60.484 46.3043 60.4902 46.3474 60.4844 46.3897L60.1805 48.6199C60.1603 48.7671 60.1764 48.9169 60.2271 49.0565C60.2778 49.1961 60.3618 49.3212 60.4717 49.4211L62.1376 50.935C62.1695 50.9637 62.1927 51.0007 62.2045 51.042C62.2163 51.0832 62.2163 51.1269 62.2045 51.1681C62.1927 51.2094 62.1695 51.2464 62.1376 51.2751C62.1057 51.3038 62.0664 51.3229 62.0242 51.3304L59.8082 51.7317C59.6622 51.7582 59.5249 51.8197 59.408 51.911C59.2911 52.0024 59.1981 52.1208 59.1371 52.256L58.2119 54.3088C58.1945 54.3479 58.1663 54.3813 58.1308 54.4052C58.0953 54.4291 58.0538 54.4426 58.011 54.444C57.9682 54.4455 57.9259 54.4349 57.8888 54.4135C57.8517 54.3921 57.8213 54.3608 57.8012 54.323L56.7352 52.3409C56.6649 52.21 56.5638 52.0982 56.4406 52.0151C56.3174 51.932 56.1758 51.8802 56.0281 51.8641L53.7908 51.6199C53.7482 51.6154 53.7077 51.599 53.6739 51.5727C53.6401 51.5463 53.6145 51.5109 53.5998 51.4707C53.5851 51.4304 53.582 51.3869 53.5909 51.3449C53.5998 51.303 53.6203 51.2644 53.65 51.2336L55.2062 49.6042C55.3088 49.497 55.3839 49.3664 55.4248 49.2237C55.4657 49.0811 55.4713 48.9306 55.4411 48.7853L54.9831 46.5801Z" stroke="url(#paint3_linear_13_46)" stroke-opacity="0.78" stroke-width="2" stroke-linecap="round" stroke-linejoin="round"/>
<path d="M70.6447 38.4543C70.6595 38.4143 70.6852 38.3793 70.7189 38.3531C70.7526 38.327 70.7929 38.3108 70.8353 38.3063C70.8777 38.3018 70.9205 38.3093 70.9589 38.3279C70.9973 38.3465 71.0297 38.3754 71.0525 38.4115L72.2552 40.3158C72.3344 40.4412 72.4428 40.5455 72.5712 40.6197C72.6996 40.6939 72.8441 40.7358 72.9923 40.7418L75.244 40.8333C75.2867 40.8349 75.328 40.8485 75.3634 40.8725C75.3987 40.8964 75.4266 40.9298 75.444 40.9688C75.4614 41.0077 75.4675 41.0508 75.4617 41.0931C75.4558 41.1354 75.4383 41.1752 75.411 41.2081L73.9714 42.9383C73.8763 43.0525 73.8105 43.188 73.7796 43.3333C73.7486 43.4785 73.7535 43.6291 73.7938 43.7721L74.4044 45.9388C74.4162 45.98 74.4162 46.0237 74.4044 46.0649C74.3926 46.1061 74.3694 46.1432 74.3375 46.1719C74.3056 46.2006 74.2663 46.2198 74.2241 46.2272C74.1819 46.2346 74.1384 46.23 74.0986 46.2139L72.0067 45.38C71.8689 45.3251 71.7198 45.3045 71.5722 45.32C71.4247 45.3355 71.2831 45.3867 71.1597 45.469L69.2873 46.7196C69.2518 46.7435 69.2103 46.7569 69.1675 46.7584C69.1247 46.7598 69.0823 46.7492 69.0453 46.7278C69.0082 46.7064 68.9779 46.675 68.9578 46.6372C68.9377 46.5994 68.9286 46.5567 68.9315 46.514L69.0778 44.2682C69.0876 44.1199 69.0611 43.9715 69.0006 43.8358C68.9401 43.7 68.8475 43.5811 68.7308 43.4891L66.9629 42.0964C66.9291 42.07 66.9035 42.0347 66.8888 41.9944C66.8741 41.9542 66.8711 41.9106 66.88 41.8687C66.8889 41.8268 66.9094 41.7882 66.9391 41.7574C66.9688 41.7265 67.0067 41.7046 67.0482 41.6942L69.2314 41.1371C69.3752 41.1006 69.5081 41.0296 69.6184 40.9303C69.7287 40.831 69.8132 40.7063 69.8646 40.5671L70.6447 38.4543Z" stroke="url(#paint4_linear_13_46)" stroke-opacity="0.78" stroke-width="2" stroke-linecap="round" stroke-linejoin="round"/>
<path d="M67.9005 59.8232C67.8649 59.7998 67.8365 59.7669 67.8186 59.7282C67.8007 59.6895 67.7939 59.6465 67.7991 59.6042C67.8043 59.5619 67.8213 59.5219 67.848 59.4886C67.8747 59.4554 67.9102 59.4303 67.9505 59.4162L70.0766 58.6727C70.2166 58.6238 70.3426 58.5416 70.4438 58.4332C70.545 58.3248 70.6183 58.1934 70.6574 58.0504L71.2531 55.8769C71.2643 55.8357 71.2868 55.7985 71.3181 55.7695C71.3494 55.7404 71.3882 55.7207 71.4301 55.7125C71.472 55.7044 71.5154 55.7081 71.5553 55.7233C71.5951 55.7385 71.63 55.7645 71.6558 55.7985L73.0179 57.5905C73.1078 57.7088 73.225 57.8034 73.3596 57.8662C73.4942 57.929 73.642 57.9581 73.7904 57.951L76.0389 57.8436C76.0817 57.8413 76.1243 57.8511 76.1618 57.8719C76.1993 57.8927 76.2302 57.9236 76.251 57.9611C76.2718 57.9986 76.2816 58.0412 76.2793 58.0841C76.2771 58.1269 76.2628 58.1682 76.2382 58.2033L74.9551 60.0541C74.8706 60.176 74.8169 60.3166 74.7989 60.4639C74.7808 60.6111 74.7988 60.7606 74.8513 60.8993L75.6486 63.0051C75.6639 63.0451 75.6676 63.0886 75.6594 63.1306C75.6512 63.1726 75.6314 63.2115 75.6021 63.2428C75.5729 63.2741 75.5355 63.2966 75.4942 63.3077C75.4528 63.3187 75.4092 63.318 75.3682 63.3055L73.2129 62.6577C73.0706 62.6149 72.92 62.6073 72.7742 62.6357C72.6283 62.6641 72.4916 62.7276 72.3757 62.8207L70.621 64.2299C70.5877 64.2569 70.5475 64.274 70.505 64.2792C70.4625 64.2844 70.4193 64.2776 70.3805 64.2595C70.3416 64.2414 70.3087 64.2128 70.2853 64.1769C70.2619 64.1409 70.2491 64.0992 70.2483 64.0563L70.1966 61.8038C70.1934 61.6554 70.1541 61.51 70.0821 61.3802C70.0102 61.2504 69.9077 61.14 69.7836 61.0586L67.9005 59.8232Z" stroke="url(#paint5_linear_13_46)" stroke-opacity="0.78" stroke-width="2" stroke-linecap="round" stroke-linejoin="round"/>
<path d="M86.6252 61.4657C86.6225 61.4232 86.6317 61.3807 86.6519 61.3431C86.672 61.3055 86.7022 61.2743 86.7392 61.253C86.7761 61.2316 86.8182 61.2211 86.8609 61.2224C86.9035 61.2238 86.9449 61.237 86.9804 61.2607L88.8537 62.5112C88.977 62.5936 89.1185 62.6448 89.266 62.6603C89.4134 62.6759 89.5625 62.6554 89.7003 62.6006L91.7945 61.7683C91.8342 61.7524 91.8775 61.748 91.9195 61.7555C91.9615 61.763 92.0006 61.7821 92.0324 61.8107C92.0641 61.8393 92.0872 61.8761 92.0991 61.9171C92.111 61.9581 92.1111 62.0017 92.0995 62.0427L91.4881 64.209C91.4477 64.3519 91.4427 64.5025 91.4736 64.6478C91.5044 64.7931 91.5701 64.9287 91.665 65.0429L93.1041 66.7739C93.1316 66.8067 93.1494 66.8467 93.1554 66.8891C93.1614 66.9316 93.1553 66.9749 93.1378 67.0141C93.1204 67.0533 93.0923 67.0867 93.0567 67.1107C93.0212 67.1347 92.9796 67.1482 92.9367 67.1496L90.6864 67.2387C90.5382 67.2445 90.3936 67.2864 90.2651 67.3606C90.1366 67.4347 90.0281 67.539 89.9489 67.6645L88.747 69.5685C88.7243 69.6048 88.6918 69.634 88.6533 69.6527C88.6148 69.6714 88.5718 69.679 88.5292 69.6745C88.4866 69.67 88.4462 69.6536 88.4124 69.6273C88.3787 69.6009 88.353 69.5656 88.3383 69.5254L87.5586 67.4142C87.5072 67.2748 87.4226 67.15 87.3121 67.0506C87.2017 66.9512 87.0687 66.8802 86.9246 66.8437L84.7431 66.2905C84.7016 66.2801 84.6637 66.2583 84.634 66.2274C84.6042 66.1966 84.5837 66.1581 84.5748 66.1161C84.5658 66.0742 84.5689 66.0307 84.5835 65.9904C84.5981 65.9501 84.6238 65.9147 84.6575 65.8883L86.4253 64.4914C86.5419 64.3995 86.6343 64.2806 86.6947 64.1451C86.7551 64.0095 86.7816 63.8612 86.7719 63.7131L86.6252 61.4657Z" stroke="url(#paint6_linear_13_46)" stroke-opacity="0.78" stroke-width="2" stroke-linecap="round" stroke-linejoin="round"/>
<path d="M87.386 42.9967C87.4029 42.9576 87.4304 42.9239 87.4654 42.8996C87.5004 42.8752 87.5415 42.8611 87.5841 42.8589C87.6267 42.8567 87.669 42.8664 87.7064 42.8869C87.7437 42.9075 87.7746 42.9381 87.7955 42.9753L88.8969 44.94C88.9694 45.0694 89.0722 45.1792 89.1966 45.26C89.3209 45.3408 89.463 45.3902 89.6107 45.404L91.8545 45.6131C91.897 45.617 91.9376 45.6328 91.9717 45.6585C92.0057 45.6843 92.0319 45.719 92.0472 45.7589C92.0625 45.7988 92.0663 45.8421 92.0583 45.884C92.0503 45.926 92.0306 45.9648 92.0017 45.9962L90.4735 47.6487C90.3726 47.7577 90.2998 47.8896 90.2613 48.0331C90.2228 48.1765 90.2198 48.3272 90.2525 48.472L90.7488 50.6677C90.7585 50.7095 90.7562 50.7531 90.7422 50.7937C90.7283 50.8342 90.7032 50.87 90.6699 50.897C90.6365 50.924 90.5963 50.9411 90.5537 50.9463C90.5112 50.9515 90.468 50.9446 90.4291 50.9265L88.3837 49.9842C88.2489 49.9222 88.1011 49.8938 87.953 49.9016C87.8048 49.9093 87.6608 49.953 87.5332 50.0288L85.5979 51.1797C85.5612 51.2017 85.519 51.2129 85.4762 51.2121C85.4334 51.2113 85.3917 51.1985 85.3558 51.1752C85.3199 51.1518 85.2912 51.1189 85.2731 51.0801C85.255 51.0413 85.2482 50.9982 85.2534 50.9557L85.517 48.7206C85.5345 48.5731 85.5158 48.4235 85.4625 48.2848C85.4093 48.146 85.323 48.0224 85.2112 47.9245L83.5187 46.4412C83.4863 46.4131 83.4625 46.3764 83.45 46.3354C83.4375 46.2945 83.4367 46.2508 83.4478 46.2094C83.4588 46.168 83.4813 46.1305 83.5126 46.1013C83.544 46.0721 83.5829 46.0522 83.6249 46.044L85.8342 45.6019C85.9798 45.5729 86.1162 45.509 86.2315 45.4156C86.3469 45.3222 86.4378 45.2021 86.4964 45.0658L87.386 42.9967Z" stroke="url(#paint7_linear_13_46)" stroke-opacity="0.78" stroke-width="2" stroke-linecap="round" stroke-linejoin="round"/>
<path d="M38.8877 54.2325C38.8983 54.1912 38.9202 54.1536 38.951 54.1241C38.9817 54.0946 39.0201 54.0742 39.0618 54.0654C39.1035 54.0565 39.1469 54.0595 39.187 54.0739C39.2271 54.0884 39.2624 54.1138 39.2888 54.1472L40.6841 55.9154C40.7759 56.0319 40.8946 56.1243 41.0301 56.1847C41.1655 56.2451 41.3136 56.2716 41.4616 56.2621L43.7106 56.1176C43.7532 56.1148 43.7957 56.124 43.8333 56.1441C43.871 56.1643 43.9023 56.1945 43.9236 56.2315C43.945 56.2684 43.9556 56.3107 43.9542 56.3533C43.9528 56.396 43.9395 56.4374 43.9158 56.4729L42.6649 58.3442C42.5823 58.4676 42.531 58.6093 42.5155 58.757C42.4999 58.9047 42.5205 59.054 42.5755 59.1919L43.4092 61.2829C43.4252 61.3227 43.4298 61.3662 43.4224 61.4084C43.4149 61.4506 43.3958 61.4899 43.3671 61.5218C43.3384 61.5537 43.3013 61.5768 43.2601 61.5886C43.2188 61.6004 43.1751 61.6004 43.1339 61.5886L40.9662 60.9779C40.8234 60.9377 40.673 60.9328 40.5279 60.9636C40.3828 60.9944 40.2473 61.0601 40.1332 61.1549L38.4018 62.5944C38.3689 62.6219 38.329 62.6396 38.2866 62.6455C38.2442 62.6514 38.201 62.6453 38.1619 62.6278C38.1228 62.6104 38.0894 62.5824 38.0654 62.5469C38.0415 62.5114 38.028 62.4699 38.0264 62.4271L37.9372 60.1783C37.9314 60.0298 37.8895 59.885 37.8152 59.7563C37.7409 59.6276 37.6363 59.519 37.5106 59.4398L35.6068 58.2395C35.5705 58.2168 35.5413 58.1843 35.5225 58.1458C35.5037 58.1073 35.4961 58.0643 35.5006 58.0217C35.505 57.9791 35.5214 57.9385 35.5477 57.9048C35.5741 57.871 35.6094 57.8453 35.6497 57.8306L37.7626 57.0483C37.9019 56.9969 38.0265 56.9125 38.1259 56.8022C38.2252 56.6919 38.2962 56.5591 38.3328 56.4152L38.8877 54.2325Z" stroke="url(#paint8_linear_13_46)" stroke-opacity="0.78" stroke-width="2" stroke-linecap="round" stroke-linejoin="round"/>
<path d="M46.8071 40.9175C46.8464 40.9011 46.8896 40.896 46.9317 40.9028C46.9738 40.9096 47.0131 40.928 47.0453 40.956C47.0775 40.984 47.1012 41.0204 47.1138 41.0611C47.1264 41.1019 47.1274 41.1453 47.1166 41.1866L46.5441 43.365C46.5063 43.5084 46.504 43.6588 46.5373 43.8033C46.5706 43.9478 46.6385 44.0821 46.7352 44.1945L48.204 45.9037C48.2318 45.9361 48.2501 45.9755 48.2567 46.0177C48.2633 46.0599 48.258 46.1031 48.2413 46.1424C48.2246 46.1817 48.1973 46.2155 48.1624 46.2401C48.1275 46.2647 48.0864 46.279 48.0438 46.2815L45.7965 46.4086C45.6482 46.417 45.5042 46.4613 45.3768 46.5377C45.2495 46.6141 45.1427 46.7204 45.0656 46.8474L43.8974 48.7716C43.8753 48.8083 43.8434 48.8382 43.8051 48.8576C43.7669 48.8771 43.724 48.8854 43.6813 48.8817C43.6386 48.8779 43.5978 48.8623 43.5635 48.8365C43.5293 48.8106 43.503 48.7757 43.4877 48.7357L42.6708 46.637C42.617 46.4987 42.5304 46.3756 42.4184 46.2783C42.3065 46.181 42.1725 46.1123 42.0281 46.0783L39.8365 45.5618C39.7948 45.5521 39.7567 45.5308 39.7264 45.5005C39.6962 45.4702 39.675 45.432 39.6654 45.3903C39.6558 45.3486 39.6581 45.305 39.672 45.2645C39.686 45.224 39.711 45.1883 39.7442 45.1613L41.4865 43.7367C41.6016 43.6427 41.6921 43.5221 41.7501 43.3853C41.8081 43.2485 41.832 43.0996 41.8196 42.9515L41.6324 40.7088C41.6287 40.6661 41.637 40.6232 41.6565 40.585C41.6759 40.5468 41.7057 40.5149 41.7424 40.4928C41.7792 40.4707 41.8214 40.4594 41.8642 40.4601C41.907 40.4608 41.9488 40.4736 41.9848 40.4969L43.8812 41.7136C44.006 41.7939 44.1485 41.8426 44.2963 41.8555C44.4442 41.8685 44.593 41.8453 44.7299 41.7879L46.8071 40.9175Z" stroke="url(#paint9_linear_13_46)" stroke-opacity="0.78" stroke-width="2" stroke-linecap="round" stroke-linejoin="round"/>
<path d="M172.545 87H156.045V40.4545H172.682C177.364 40.4545 181.394 41.3864 184.773 43.25C188.152 45.0985 190.75 47.7576 192.568 51.2273C194.402 54.697 195.318 58.8485 195.318 63.6818C195.318 68.5303 194.402 72.697 192.568 76.1818C190.75 79.6667 188.136 82.3409 184.727 84.2045C181.333 86.0682 177.273 87 172.545 87ZM165.886 78.5682H172.136C175.045 78.5682 177.492 78.053 179.477 77.0227C181.477 75.9773 182.977 74.3636 183.977 72.1818C184.992 69.9848 185.5 67.1515 185.5 63.6818C185.5 60.2424 184.992 57.4318 183.977 55.25C182.977 53.0682 181.485 51.4621 179.5 50.4318C177.515 49.4015 175.068 48.8864 172.159 48.8864H165.886V78.5682ZM218.335 87.6818C214.744 87.6818 211.653 86.9545 209.062 85.5C206.487 84.0303 204.502 81.9545 203.108 79.2727C201.714 76.5758 201.017 73.3864 201.017 69.7045C201.017 66.1136 201.714 62.9621 203.108 60.25C204.502 57.5379 206.464 55.4242 208.994 53.9091C211.54 52.3939 214.525 51.6364 217.949 51.6364C220.252 51.6364 222.396 52.0076 224.381 52.75C226.381 53.4773 228.123 54.5758 229.608 56.0455C231.108 57.5152 232.275 59.3636 233.108 61.5909C233.941 63.803 234.358 66.3939 234.358 69.3636V72.0227H204.881V66.0227H225.244C225.244 64.6288 224.941 63.3939 224.335 62.3182C223.729 61.2424 222.888 60.4015 221.812 59.7955C220.752 59.1742 219.517 58.8636 218.108 58.8636C216.638 58.8636 215.335 59.2045 214.199 59.8864C213.078 60.553 212.199 61.4545 211.562 62.5909C210.926 63.7121 210.6 64.9621 210.585 66.3409V72.0455C210.585 73.7727 210.903 75.2652 211.54 76.5227C212.191 77.7803 213.108 78.75 214.29 79.4318C215.472 80.1136 216.873 80.4545 218.494 80.4545C219.57 80.4545 220.555 80.303 221.449 80C222.343 79.697 223.108 79.2424 223.744 78.6364C224.381 78.0303 224.866 77.2879 225.199 76.4091L234.153 77C233.699 79.1515 232.767 81.0303 231.358 82.6364C229.964 84.2273 228.161 85.4697 225.949 86.3636C223.752 87.2424 221.214 87.6818 218.335 87.6818ZM272.284 52.0909L260.08 87H249.17L236.966 52.0909H247.193L254.443 77.0682H254.807L262.034 52.0909H272.284ZM277.239 87V52.0909H286.92V87H277.239ZM282.102 47.5909C280.663 47.5909 279.428 47.1136 278.398 46.1591C277.383 45.1894 276.875 44.0303 276.875 42.6818C276.875 41.3485 277.383 40.2045 278.398 39.25C279.428 38.2803 280.663 37.7955 282.102 37.7955C283.542 37.7955 284.769 38.2803 285.784 39.25C286.814 40.2045 287.33 41.3485 287.33 42.6818C287.33 44.0303 286.814 45.1894 285.784 46.1591C284.769 47.1136 283.542 47.5909 282.102 47.5909ZM310.449 87.6818C306.873 87.6818 303.797 86.9242 301.222 85.4091C298.661 83.8788 296.691 81.7576 295.312 79.0455C293.949 76.3333 293.267 73.2121 293.267 69.6818C293.267 66.1061 293.956 62.9697 295.335 60.2727C296.729 57.5606 298.706 55.447 301.267 53.9318C303.828 52.4015 306.873 51.6364 310.403 51.6364C313.449 51.6364 316.116 52.1894 318.403 53.2955C320.691 54.4015 322.502 55.9545 323.835 57.9545C325.169 59.9545 325.903 62.303 326.04 65H316.903C316.646 63.2576 315.964 61.8561 314.858 60.7955C313.767 59.7197 312.335 59.1818 310.562 59.1818C309.062 59.1818 307.752 59.5909 306.631 60.4091C305.525 61.2121 304.661 62.3864 304.04 63.9318C303.419 65.4773 303.108 67.3485 303.108 69.5455C303.108 71.7727 303.411 73.6667 304.017 75.2273C304.638 76.7879 305.509 77.9773 306.631 78.7955C307.752 79.6136 309.062 80.0227 310.562 80.0227C311.669 80.0227 312.661 79.7955 313.54 79.3409C314.434 78.8864 315.169 78.2273 315.744 77.3636C316.335 76.4848 316.722 75.4318 316.903 74.2045H326.04C325.888 76.8712 325.161 79.2197 323.858 81.25C322.57 83.2652 320.79 84.8409 318.517 85.9773C316.244 87.1136 313.555 87.6818 310.449 87.6818ZM348.148 87.6818C344.557 87.6818 341.466 86.9545 338.875 85.5C336.299 84.0303 334.314 81.9545 332.92 79.2727C331.527 76.5758 330.83 73.3864 330.83 69.7045C330.83 66.1136 331.527 62.9621 332.92 60.25C334.314 57.5379 336.277 55.4242 338.807 53.9091C341.352 52.3939 344.337 51.6364 347.761 51.6364C350.064 51.6364 352.208 52.0076 354.193 52.75C356.193 53.4773 357.936 54.5758 359.42 56.0455C360.92 57.5152 362.087 59.3636 362.92 61.5909C363.754 63.803 364.17 66.3939 364.17 69.3636V72.0227H334.693V66.0227H355.057C355.057 64.6288 354.754 63.3939 354.148 62.3182C353.542 61.2424 352.701 60.4015 351.625 59.7955C350.564 59.1742 349.33 58.8636 347.92 58.8636C346.451 58.8636 345.148 59.2045 344.011 59.8864C342.89 60.553 342.011 61.4545 341.375 62.5909C340.739 63.7121 340.413 64.9621 340.398 66.3409V72.0455C340.398 73.7727 340.716 75.2652 341.352 76.5227C342.004 77.7803 342.92 78.75 344.102 79.4318C345.284 80.1136 346.686 80.4545 348.307 80.4545C349.383 80.4545 350.367 80.303 351.261 80C352.155 79.697 352.92 79.2424 353.557 78.6364C354.193 78.0303 354.678 77.2879 355.011 76.4091L363.966 77C363.511 79.1515 362.58 81.0303 361.17 82.6364C359.777 84.2273 357.973 85.4697 355.761 86.3636C353.564 87.2424 351.027 87.6818 348.148 87.6818ZM401.534 55.5C401.216 54.3939 400.769 53.4167 400.193 52.5682C399.617 51.7045 398.913 50.9773 398.08 50.3864C397.261 49.7803 396.322 49.3182 395.261 49C394.216 48.6818 393.057 48.5227 391.784 48.5227C389.405 48.5227 387.314 49.1136 385.511 50.2955C383.723 51.4773 382.33 53.197 381.33 55.4545C380.33 57.697 379.83 60.4394 379.83 63.6818C379.83 66.9242 380.322 69.6818 381.307 71.9545C382.292 74.2273 383.686 75.9621 385.489 77.1591C387.292 78.3409 389.42 78.9318 391.875 78.9318C394.102 78.9318 396.004 78.5379 397.58 77.75C399.17 76.947 400.383 75.8182 401.216 74.3636C402.064 72.9091 402.489 71.1894 402.489 69.2045L404.489 69.5H392.489V62.0909H411.966V67.9545C411.966 72.0455 411.102 75.5606 409.375 78.5C407.648 81.4242 405.269 83.6818 402.239 85.2727C399.208 86.8485 395.739 87.6364 391.83 87.6364C387.466 87.6364 383.633 86.6742 380.33 84.75C377.027 82.8106 374.451 80.0606 372.602 76.5C370.769 72.9242 369.852 68.6818 369.852 63.7727C369.852 60 370.398 56.6364 371.489 53.6818C372.595 50.7121 374.14 48.197 376.125 46.1364C378.11 44.0758 380.42 42.5076 383.057 41.4318C385.693 40.3561 388.549 39.8182 391.625 39.8182C394.261 39.8182 396.716 40.2045 398.989 40.9773C401.261 41.7348 403.277 42.8106 405.034 44.2045C406.807 45.5985 408.254 47.2576 409.375 49.1818C410.496 51.0909 411.216 53.197 411.534 55.5H401.534ZM429.131 87.6591C426.903 87.6591 424.919 87.2727 423.176 86.5C421.434 85.7121 420.055 84.553 419.04 83.0227C418.04 81.4773 417.54 79.553 417.54 77.25C417.54 75.3106 417.896 73.6818 418.608 72.3636C419.32 71.0455 420.29 69.9848 421.517 69.1818C422.744 68.3788 424.138 67.7727 425.699 67.3636C427.275 66.9545 428.926 66.6667 430.653 66.5C432.684 66.2879 434.32 66.0909 435.562 65.9091C436.805 65.7121 437.706 65.4242 438.267 65.0455C438.828 64.6667 439.108 64.1061 439.108 63.3636V63.2273C439.108 61.7879 438.653 60.6742 437.744 59.8864C436.85 59.0985 435.578 58.7045 433.926 58.7045C432.184 58.7045 430.797 59.0909 429.767 59.8636C428.737 60.6212 428.055 61.5758 427.722 62.7273L418.767 62C419.222 59.8788 420.116 58.0455 421.449 56.5C422.782 54.9394 424.502 53.7424 426.608 52.9091C428.729 52.0606 431.184 51.6364 433.972 51.6364C435.911 51.6364 437.767 51.8636 439.54 52.3182C441.328 52.7727 442.911 53.4773 444.29 54.4318C445.684 55.3864 446.782 56.6136 447.585 58.1136C448.388 59.5985 448.79 61.3788 448.79 63.4545V87H439.608V82.1591H439.335C438.775 83.25 438.025 84.2121 437.085 85.0455C436.146 85.8636 435.017 86.5076 433.699 86.9773C432.381 87.4318 430.858 87.6591 429.131 87.6591ZM431.903 80.9773C433.328 80.9773 434.585 80.697 435.676 80.1364C436.767 79.5606 437.623 78.7879 438.244 77.8182C438.866 76.8485 439.176 75.75 439.176 74.5227V70.8182C438.873 71.0152 438.456 71.197 437.926 71.3636C437.411 71.5152 436.828 71.6591 436.176 71.7955C435.525 71.9167 434.873 72.0303 434.222 72.1364C433.57 72.2273 432.979 72.3106 432.449 72.3864C431.313 72.553 430.32 72.8182 429.472 73.1818C428.623 73.5455 427.964 74.0379 427.494 74.6591C427.025 75.2652 426.79 76.0227 426.79 76.9318C426.79 78.25 427.267 79.2576 428.222 79.9545C429.191 80.6364 430.419 80.9773 431.903 80.9773ZM465.983 40.4545V87H456.301V40.4545H465.983ZM483.693 87.6591C481.466 87.6591 479.481 87.2727 477.739 86.5C475.996 85.7121 474.617 84.553 473.602 83.0227C472.602 81.4773 472.102 79.553 472.102 77.25C472.102 75.3106 472.458 73.6818 473.17 72.3636C473.883 71.0455 474.852 69.9848 476.08 69.1818C477.307 68.3788 478.701 67.7727 480.261 67.3636C481.837 66.9545 483.489 66.6667 485.216 66.5C487.246 66.2879 488.883 66.0909 490.125 65.9091C491.367 65.7121 492.269 65.4242 492.83 65.0455C493.39 64.6667 493.67 64.1061 493.67 63.3636V63.2273C493.67 61.7879 493.216 60.6742 492.307 59.8864C491.413 59.0985 490.14 58.7045 488.489 58.7045C486.746 58.7045 485.36 59.0909 484.33 59.8636C483.299 60.6212 482.617 61.5758 482.284 62.7273L473.33 62C473.784 59.8788 474.678 58.0455 476.011 56.5C477.345 54.9394 479.064 53.7424 481.17 52.9091C483.292 52.0606 485.746 51.6364 488.534 51.6364C490.473 51.6364 492.33 51.8636 494.102 52.3182C495.89 52.7727 497.473 53.4773 498.852 54.4318C500.246 55.3864 501.345 56.6136 502.148 58.1136C502.951 59.5985 503.352 61.3788 503.352 63.4545V87H494.17V82.1591H493.898C493.337 83.25 492.587 84.2121 491.648 85.0455C490.708 85.8636 489.58 86.5076 488.261 86.9773C486.943 87.4318 485.42 87.6591 483.693 87.6591ZM486.466 80.9773C487.89 80.9773 489.148 80.697 490.239 80.1364C491.33 79.5606 492.186 78.7879 492.807 77.8182C493.428 76.8485 493.739 75.75 493.739 74.5227V70.8182C493.436 71.0152 493.019 71.197 492.489 71.3636C491.973 71.5152 491.39 71.6591 490.739 71.7955C490.087 71.9167 489.436 72.0303 488.784 72.1364C488.133 72.2273 487.542 72.3106 487.011 72.3864C485.875 72.553 484.883 72.8182 484.034 73.1818C483.186 73.5455 482.527 74.0379 482.057 74.6591C481.587 75.2652 481.352 76.0227 481.352 76.9318C481.352 78.25 481.83 79.2576 482.784 79.9545C483.754 80.6364 484.981 80.9773 486.466 80.9773ZM518.955 52.0909L525.364 64.2955L531.932 52.0909H541.864L531.75 69.5455L542.136 87H532.25L525.364 74.9318L518.591 87H508.591L518.955 69.5455L508.955 52.0909H518.955ZM553.591 100.091C552.364 100.091 551.212 99.9924 550.136 99.7955C549.076 99.6136 548.197 99.3788 547.5 99.0909L549.682 91.8636C550.818 92.2121 551.841 92.4015 552.75 92.4318C553.674 92.4621 554.47 92.25 555.136 91.7955C555.818 91.3409 556.371 90.5682 556.795 89.4773L557.364 88L544.841 52.0909H555.023L562.25 77.7273H562.614L569.909 52.0909H580.159L566.591 90.7727C565.939 92.6515 565.053 94.2879 563.932 95.6818C562.826 97.0909 561.424 98.1742 559.727 98.9318C558.03 99.7045 555.985 100.091 553.591 100.091Z" fill="url(#paint10_linear_13_46)"/>
<defs>
<linearGradient id="paint0_linear_13_46" x1="0" y1="0" x2="150.261" y2="73.0578" gradientUnits="userSpaceOnUse">
<stop stop-color="#35005E"/>
<stop offset="1" stop-color="#100031"/>
</linearGradient>
<linearGradient id="paint1_linear_13_46" x1="23.3594" y1="27.3438" x2="102.648" y2="82.7266" gradientUnits="userSpaceOnUse">
<stop stop-color="#35005E"/>
<stop offset="1" stop-color="#100031"/>
</linearGradient>
<linearGradient id="paint2_linear_13_46" x1="52.4043" y1="64.0333" x2="59.3084" y2="68.5169" gradientUnits="userSpaceOnUse">
<stop stop-color="#FBFBFB"/>
<stop offset="1" stop-color="#B49FFF"/>
</linearGradient>
<linearGradient id="paint3_linear_13_46" x1="55.066" y1="46.3539" x2="60.1343" y2="52.841" gradientUnits="userSpaceOnUse">
<stop stop-color="#FBFBFB"/>
<stop offset="1" stop-color="#B49FFF"/>
</linearGradient>
<linearGradient id="paint4_linear_13_46" x1="70.8349" y1="38.3063" x2="71.6954" y2="46.4935" gradientUnits="userSpaceOnUse">
<stop stop-color="#FBFBFB"/>
<stop offset="1" stop-color="#B49FFF"/>
</linearGradient>
<linearGradient id="paint5_linear_13_46" x1="67.7991" y1="59.6046" x2="75.97" y2="60.6079" gradientUnits="userSpaceOnUse">
<stop stop-color="#FBFBFB"/>
<stop offset="1" stop-color="#B49FFF"/>
</linearGradient>
<linearGradient id="paint6_linear_13_46" x1="86.7388" y1="61.2532" x2="90.855" y2="68.3825" gradientUnits="userSpaceOnUse">
<stop stop-color="#FBFBFB"/>
<stop offset="1" stop-color="#B49FFF"/>
</linearGradient>
<linearGradient id="paint7_linear_13_46" x1="87.5837" y1="42.8589" x2="88.0146" y2="51.0799" gradientUnits="userSpaceOnUse">
<stop stop-color="#FBFBFB"/>
<stop offset="1" stop-color="#B49FFF"/>
</linearGradient>
<linearGradient id="paint8_linear_13_46" x1="39.0615" y1="54.0654" x2="40.773" y2="62.1178" gradientUnits="userSpaceOnUse">
<stop stop-color="#FBFBFB"/>
<stop offset="1" stop-color="#B49FFF"/>
</linearGradient>
<linearGradient id="paint9_linear_13_46" x1="47.045" y1="40.9557" x2="41.6442" y2="47.1687" gradientUnits="userSpaceOnUse">
<stop stop-color="#FBFBFB"/>
<stop offset="1" stop-color="#B49FFF"/>
</linearGradient>
<linearGradient id="paint10_linear_13_46" x1="152" y1="63.5" x2="582" y2="63.5" gradientUnits="userSpaceOnUse">
<stop stop-color="#D1AEFF"/>
<stop offset="1" stop-color="#73A0FF"/>
</linearGradient>
</defs>
</svg>
