<svg width="102" height="102" viewBox="0 0 102 102" fill="none" xmlns="http://www.w3.org/2000/svg">
<rect x="10.3594" y="14.3438" width="81.2812" height="56.5781" fill="url(#paint0_linear_16_11)"/>
<path d="M85 12.75H17C12.3056 12.75 8.5 16.5556 8.5 21.25V63.75C8.5 68.4444 12.3056 72.25 17 72.25H85C89.6944 72.25 93.5 68.4444 93.5 63.75V21.25C93.5 16.5556 89.6944 12.75 85 12.75Z" stroke="white" stroke-width="10.6667" stroke-linecap="round" stroke-linejoin="round"/>
<path d="M34 89.25H68M51 72.25V89.25" stroke="white" stroke-width="10.6667" stroke-linecap="round" stroke-linejoin="round"/>
<path d="M39.3996 51.2743C39.3779 51.2376 39.3668 51.1956 39.3677 51.1529C39.3685 51.1103 39.3813 51.0688 39.4045 51.033C39.4277 50.9972 39.4605 50.9687 39.4991 50.9505C39.5377 50.9324 39.5806 50.9254 39.6229 50.9304L41.8598 51.1941C42.0071 51.2115 42.1564 51.1929 42.2948 51.1398C42.4333 51.0868 42.5568 51.0008 42.6547 50.8894L44.1428 49.197C44.171 49.1649 44.2076 49.1413 44.2484 49.1289C44.2893 49.1165 44.3328 49.1158 44.374 49.1269C44.4152 49.1379 44.4526 49.1603 44.4818 49.1914C44.511 49.2226 44.5309 49.2613 44.5392 49.3031L44.9779 51.5108C45.0068 51.6565 45.0707 51.793 45.1641 51.9084C45.2575 52.0239 45.3777 52.1149 45.5141 52.1735L47.5821 53.0626C47.6216 53.0793 47.6556 53.1068 47.6802 53.1419C47.7048 53.1771 47.719 53.2184 47.7213 53.2612C47.7235 53.3041 47.7137 53.3467 47.6929 53.3842C47.6721 53.4217 47.6411 53.4526 47.6036 53.4733L45.639 54.5743C45.5096 54.6468 45.3998 54.7497 45.319 54.8741C45.2382 54.9986 45.1888 55.1408 45.1752 55.2885L44.9687 57.5307C44.9649 57.5733 44.9492 57.614 44.9234 57.6482C44.8976 57.6824 44.8627 57.7086 44.8228 57.7239C44.7828 57.7393 44.7393 57.7431 44.6973 57.7349C44.6552 57.7267 44.6163 57.7069 44.585 57.6778L42.9318 56.1507C42.8227 56.0498 42.6907 55.977 42.5471 55.9386C42.4036 55.9002 42.2528 55.8973 42.1079 55.9302L39.913 56.4276C39.8713 56.4372 39.8277 56.435 39.7871 56.421C39.7466 56.4071 39.7108 56.382 39.6839 56.3487C39.6569 56.3154 39.6398 56.2752 39.6345 56.2327C39.6293 56.1902 39.6361 56.147 39.6542 56.1082L40.5951 54.0609C40.6572 53.9261 40.6857 53.7783 40.6779 53.63C40.6702 53.4818 40.6265 53.3377 40.5506 53.2101L39.3996 51.2743Z" stroke="url(#paint1_linear_16_11)" stroke-opacity="0.78" stroke-width="2" stroke-linecap="round" stroke-linejoin="round"/>
<path d="M41.9831 33.5801C41.9745 33.5384 41.9777 33.495 41.9924 33.455C42.0071 33.415 42.0327 33.3799 42.0663 33.3536C42.0999 33.3274 42.1402 33.311 42.1826 33.3064C42.225 33.3019 42.2678 33.3092 42.3063 33.3277L44.3354 34.3053C44.469 34.3697 44.6162 34.4007 44.7644 34.3956C44.9126 34.3905 45.0574 34.3495 45.1862 34.276L47.1442 33.1603C47.1813 33.1391 47.2235 33.1287 47.2662 33.1303C47.3089 33.1319 47.3502 33.1454 47.3856 33.1692C47.421 33.1931 47.4491 33.2264 47.4665 33.2654C47.484 33.3043 47.4902 33.3474 47.4845 33.3897L47.1805 35.6199C47.1604 35.7671 47.1764 35.9169 47.2271 36.0565C47.2779 36.1961 47.3618 36.3212 47.4717 36.4211L49.1377 37.935C49.1695 37.9637 49.1927 38.0007 49.2045 38.042C49.2164 38.0832 49.2164 38.1269 49.2045 38.1681C49.1927 38.2094 49.1695 38.2464 49.1376 38.2751C49.1058 38.3038 49.0665 38.3229 49.0242 38.3304L46.8082 38.7317C46.6623 38.7582 46.5249 38.8197 46.408 38.911C46.2911 39.0024 46.1981 39.1208 46.1372 39.256L45.212 41.3088C45.1945 41.3479 45.1664 41.3813 45.1309 41.4052C45.0953 41.4291 45.0538 41.4426 45.011 41.444C44.9682 41.4455 44.9259 41.4349 44.8888 41.4135C44.8517 41.3921 44.8214 41.3608 44.8012 41.323L43.7352 39.3409C43.6649 39.21 43.5638 39.0982 43.4406 39.0151C43.3174 38.932 43.1758 38.8802 43.0281 38.8641L40.7908 38.6199C40.7482 38.6154 40.7077 38.599 40.6739 38.5727C40.6402 38.5463 40.6145 38.5109 40.5998 38.4707C40.5851 38.4304 40.5821 38.3869 40.591 38.3449C40.5998 38.303 40.6203 38.2644 40.6501 38.2336L42.2062 36.6042C42.3089 36.497 42.3839 36.3664 42.4248 36.2237C42.4658 36.0811 42.4714 35.9306 42.4412 35.7853L41.9831 33.5801Z" stroke="url(#paint2_linear_16_11)" stroke-opacity="0.78" stroke-width="2" stroke-linecap="round" stroke-linejoin="round"/>
<path d="M57.6447 25.4543C57.6596 25.4143 57.6853 25.3793 57.7189 25.3531C57.7526 25.327 57.7929 25.3108 57.8353 25.3063C57.8778 25.3018 57.9206 25.3093 57.9589 25.3279C57.9973 25.3465 58.0297 25.3754 58.0526 25.4115L59.2553 27.3158C59.3344 27.4412 59.4429 27.5455 59.5713 27.6197C59.6996 27.6939 59.8441 27.7358 59.9923 27.7418L62.2441 27.8333C62.2867 27.8349 62.3281 27.8485 62.3634 27.8725C62.3988 27.8964 62.4267 27.9298 62.4441 27.9688C62.4615 28.0077 62.4676 28.0508 62.4617 28.0931C62.4559 28.1354 62.4384 28.1752 62.4111 28.2081L60.9714 29.9383C60.8764 30.0525 60.8106 30.188 60.7796 30.3333C60.7487 30.4785 60.7536 30.6291 60.7939 30.7721L61.4044 32.9388C61.4162 32.98 61.4163 33.0237 61.4044 33.0649C61.3926 33.1061 61.3694 33.1432 61.3376 33.1719C61.3057 33.2006 61.2664 33.2198 61.2242 33.2272C61.1819 33.2346 61.1385 33.23 61.0987 33.2139L59.0068 32.38C58.8689 32.3251 58.7198 32.3045 58.5723 32.32C58.4247 32.3355 58.2832 32.3867 58.1598 32.469L56.2874 33.7196C56.2518 33.7435 56.2103 33.7569 56.1675 33.7584C56.1247 33.7598 56.0824 33.7492 56.0453 33.7278C56.0082 33.7064 55.9779 33.675 55.9578 33.6372C55.9377 33.5994 55.9286 33.5567 55.9316 33.514L56.0779 31.2682C56.0876 31.1199 56.0611 30.9715 56.0007 30.8358C55.9402 30.7 55.8476 30.5811 55.7308 30.4891L53.963 29.0964C53.9292 29.07 53.9035 29.0347 53.8889 28.9944C53.8742 28.9542 53.8711 28.9106 53.88 28.8687C53.8889 28.8268 53.9094 28.7882 53.9392 28.7574C53.9689 28.7265 54.0067 28.7046 54.0483 28.6942L56.2314 28.1371C56.3753 28.1006 56.5081 28.0296 56.6184 27.9303C56.7287 27.831 56.8132 27.7063 56.8647 27.5671L57.6447 25.4543Z" stroke="url(#paint3_linear_16_11)" stroke-opacity="0.78" stroke-width="2" stroke-linecap="round" stroke-linejoin="round"/>
<path d="M54.9006 46.8232C54.8649 46.7998 54.8366 46.7669 54.8187 46.7282C54.8008 46.6895 54.794 46.6465 54.7992 46.6042C54.8044 46.5619 54.8213 46.5219 54.8481 46.4886C54.8748 46.4554 54.9103 46.4303 54.9505 46.4162L57.0767 45.6727C57.2167 45.6238 57.3427 45.5416 57.4439 45.4332C57.545 45.3248 57.6184 45.1934 57.6575 45.0504L58.2532 42.8769C58.2644 42.8357 58.2869 42.7985 58.3182 42.7695C58.3495 42.7404 58.3883 42.7207 58.4302 42.7125C58.4721 42.7044 58.5154 42.7081 58.5553 42.7233C58.5952 42.7385 58.6301 42.7645 58.6559 42.7985L60.018 44.5905C60.1078 44.7088 60.2251 44.8034 60.3597 44.8662C60.4942 44.929 60.6421 44.9581 60.7904 44.951L63.0389 44.8436C63.0818 44.8413 63.1244 44.8511 63.1619 44.8719C63.1994 44.8927 63.2303 44.9236 63.2511 44.9611C63.2719 44.9986 63.2817 45.0412 63.2794 45.0841C63.2772 45.1269 63.2629 45.1682 63.2383 45.2033L61.9552 47.0541C61.8706 47.176 61.817 47.3166 61.7989 47.4639C61.7809 47.6111 61.7989 47.7606 61.8514 47.8993L62.6487 50.0051C62.664 50.0451 62.6677 50.0886 62.6595 50.1306C62.6513 50.1726 62.6314 50.2115 62.6022 50.2428C62.573 50.2741 62.5356 50.2966 62.4942 50.3077C62.4529 50.3187 62.4092 50.318 62.3683 50.3055L60.213 49.6577C60.0707 49.6149 59.9201 49.6073 59.7742 49.6357C59.6284 49.6641 59.4916 49.7276 59.3758 49.8207L57.6211 51.2299C57.5878 51.2569 57.5476 51.274 57.5051 51.2792C57.4625 51.2844 57.4194 51.2776 57.3806 51.2595C57.3417 51.2414 57.3087 51.2128 57.2854 51.1769C57.262 51.1409 57.2492 51.0992 57.2484 51.0563L57.1967 48.8038C57.1934 48.6554 57.1541 48.51 57.0822 48.3802C57.0103 48.2504 56.9078 48.14 56.7837 48.0586L54.9006 46.8232Z" stroke="url(#paint4_linear_16_11)" stroke-opacity="0.78" stroke-width="2" stroke-linecap="round" stroke-linejoin="round"/>
<path d="M73.6253 48.4657C73.6226 48.4232 73.6318 48.3807 73.6519 48.3431C73.672 48.3055 73.7023 48.2743 73.7392 48.253C73.7761 48.2316 73.8183 48.2211 73.8609 48.2224C73.9035 48.2238 73.9449 48.237 73.9804 48.2607L75.8537 49.5112C75.977 49.5936 76.1185 49.6448 76.266 49.6603C76.4135 49.6759 76.5625 49.6554 76.7003 49.6006L78.7946 48.7683C78.8342 48.7524 78.8775 48.748 78.9195 48.7555C78.9616 48.763 79.0007 48.7821 79.0324 48.8107C79.0641 48.8393 79.0872 48.8761 79.0991 48.9171C79.111 48.9581 79.1112 49.0017 79.0996 49.0427L78.4882 51.209C78.4478 51.3519 78.4428 51.5025 78.4736 51.6478C78.5044 51.7931 78.5701 51.9287 78.6651 52.0429L80.1041 53.7739C80.1317 53.8067 80.1495 53.8467 80.1554 53.8891C80.1614 53.9316 80.1553 53.9749 80.1379 54.0141C80.1204 54.0533 80.0923 54.0867 80.0568 54.1107C80.0212 54.1347 79.9796 54.1482 79.9368 54.1496L77.6865 54.2387C77.5382 54.2445 77.3936 54.2864 77.2652 54.3606C77.1367 54.4347 77.0282 54.539 76.949 54.6645L75.7471 56.5685C75.7243 56.6048 75.6918 56.634 75.6533 56.6527C75.6148 56.6714 75.5718 56.679 75.5293 56.6745C75.4867 56.67 75.4462 56.6536 75.4125 56.6273C75.3787 56.6009 75.3531 56.5656 75.3384 56.5254L74.5586 54.4142C74.5072 54.2748 74.4226 54.15 74.3122 54.0506C74.2017 53.9512 74.0687 53.8802 73.9247 53.8437L71.7432 53.2905C71.7016 53.2801 71.6638 53.2583 71.634 53.2274C71.6042 53.1966 71.5837 53.1581 71.5748 53.1161C71.5659 53.0742 71.5689 53.0307 71.5835 52.9904C71.5982 52.9501 71.6238 52.9147 71.6576 52.8883L73.4253 51.4914C73.5419 51.3995 73.6344 51.2806 73.6948 51.1451C73.7551 51.0095 73.7816 50.8612 73.772 50.7131L73.6253 48.4657Z" stroke="url(#paint5_linear_16_11)" stroke-opacity="0.78" stroke-width="2" stroke-linecap="round" stroke-linejoin="round"/>
<path d="M74.386 29.9967C74.4029 29.9576 74.4304 29.9239 74.4654 29.8996C74.5004 29.8752 74.5415 29.8611 74.5841 29.8589C74.6267 29.8567 74.669 29.8664 74.7064 29.8869C74.7438 29.9075 74.7746 29.9381 74.7955 29.9753L75.8969 31.94C75.9694 32.0694 76.0722 32.1792 76.1966 32.26C76.3209 32.3408 76.463 32.3902 76.6107 32.404L78.8545 32.6131C78.8971 32.617 78.9376 32.6328 78.9717 32.6585C79.0057 32.6843 79.0319 32.719 79.0472 32.7589C79.0625 32.7988 79.0663 32.8421 79.0583 32.884C79.0503 32.926 79.0307 32.9648 79.0017 32.9962L77.4735 34.6487C77.3726 34.7577 77.2998 34.8896 77.2613 35.0331C77.2228 35.1765 77.2198 35.3272 77.2525 35.472L77.7488 37.6677C77.7585 37.7095 77.7562 37.7531 77.7422 37.7937C77.7283 37.8342 77.7032 37.87 77.6699 37.897C77.6365 37.924 77.5963 37.9411 77.5537 37.9463C77.5112 37.9515 77.468 37.9446 77.4291 37.9265L75.3837 36.9842C75.249 36.9222 75.1011 36.8938 74.953 36.9016C74.8048 36.9093 74.6608 36.953 74.5332 37.0288L72.5979 38.1797C72.5612 38.2017 72.519 38.2129 72.4762 38.2121C72.4334 38.2113 72.3917 38.1985 72.3558 38.1752C72.3199 38.1518 72.2913 38.1189 72.2732 38.0801C72.2551 38.0413 72.2482 37.9982 72.2534 37.9557L72.517 35.7206C72.5345 35.5731 72.5158 35.4235 72.4626 35.2848C72.4093 35.146 72.323 35.0224 72.2112 34.9245L70.5187 33.4412C70.4863 33.4131 70.4625 33.3764 70.45 33.3354C70.4375 33.2945 70.4367 33.2508 70.4478 33.2094C70.4588 33.168 70.4813 33.1305 70.5126 33.1013C70.544 33.0721 70.5829 33.0522 70.6249 33.044L72.8342 32.6019C72.9798 32.5729 73.1162 32.509 73.2315 32.4156C73.3469 32.3222 73.4378 32.2021 73.4964 32.0658L74.386 29.9967Z" stroke="url(#paint6_linear_16_11)" stroke-opacity="0.78" stroke-width="2" stroke-linecap="round" stroke-linejoin="round"/>
<path d="M25.8878 41.2325C25.8984 41.1912 25.9203 41.1536 25.951 41.1241C25.9818 41.0946 26.0202 41.0742 26.0619 41.0654C26.1036 41.0565 26.147 41.0595 26.1871 41.0739C26.2272 41.0884 26.2625 41.1138 26.2889 41.1472L27.6841 42.9154C27.7759 43.0319 27.8947 43.1243 28.0301 43.1847C28.1656 43.2451 28.3137 43.2716 28.4616 43.2621L30.7106 43.1176C30.7532 43.1148 30.7957 43.124 30.8334 43.1441C30.8711 43.1643 30.9023 43.1945 30.9237 43.2315C30.945 43.2684 30.9556 43.3107 30.9542 43.3533C30.9529 43.396 30.9396 43.4374 30.9159 43.4729L29.665 45.3442C29.5824 45.4676 29.5311 45.6093 29.5155 45.757C29.4999 45.9047 29.5205 46.054 29.5756 46.1919L30.4092 48.2829C30.4253 48.3227 30.4299 48.3662 30.4224 48.4084C30.415 48.4506 30.3958 48.4899 30.3671 48.5218C30.3384 48.5537 30.3013 48.5768 30.2601 48.5886C30.2189 48.6004 30.1752 48.6004 30.134 48.5886L27.9663 47.9779C27.8235 47.9377 27.6731 47.9328 27.5279 47.9636C27.3828 47.9944 27.2474 48.0601 27.1333 48.1549L25.4018 49.5944C25.369 49.6219 25.3291 49.6396 25.2867 49.6455C25.2443 49.6514 25.2011 49.6453 25.162 49.6278C25.1229 49.6104 25.0894 49.5824 25.0655 49.5469C25.0415 49.5114 25.028 49.4699 25.0265 49.4271L24.9373 47.1783C24.9315 47.0298 24.8896 46.885 24.8153 46.7563C24.7409 46.6276 24.6364 46.519 24.5107 46.4398L22.6069 45.2395C22.5706 45.2168 22.5413 45.1843 22.5225 45.1458C22.5038 45.1073 22.4962 45.0643 22.5006 45.0217C22.5051 44.9791 22.5214 44.9385 22.5478 44.9048C22.5741 44.871 22.6095 44.8453 22.6497 44.8306L24.7627 44.0483C24.9019 43.9969 25.0266 43.9125 25.1259 43.8022C25.2253 43.6919 25.2963 43.5591 25.3328 43.4152L25.8878 41.2325Z" stroke="url(#paint7_linear_16_11)" stroke-opacity="0.78" stroke-width="2" stroke-linecap="round" stroke-linejoin="round"/>
<path d="M33.8071 27.9175C33.8465 27.9011 33.8897 27.896 33.9317 27.9028C33.9738 27.9096 34.0132 27.928 34.0454 27.956C34.0776 27.984 34.1013 28.0204 34.1139 28.0611C34.1265 28.1019 34.1274 28.1453 34.1166 28.1866L33.5441 30.365C33.5064 30.5084 33.504 30.6588 33.5373 30.8033C33.5706 30.9478 33.6385 31.0821 33.7352 31.1945L35.204 32.9037C35.2319 32.9361 35.2502 32.9755 35.2568 33.0177C35.2634 33.0599 35.258 33.1031 35.2414 33.1424C35.2247 33.1817 35.1973 33.2155 35.1624 33.2401C35.1275 33.2647 35.0864 33.279 35.0438 33.2815L32.7965 33.4086C32.6483 33.417 32.5042 33.4613 32.3769 33.5377C32.2496 33.6141 32.1428 33.7204 32.0657 33.8474L30.8975 35.7716C30.8754 35.8083 30.8434 35.8382 30.8052 35.8576C30.767 35.8771 30.7241 35.8854 30.6814 35.8817C30.6386 35.8779 30.5978 35.8623 30.5636 35.8365C30.5294 35.8106 30.5031 35.7757 30.4877 35.7357L29.6709 33.637C29.6171 33.4987 29.5305 33.3756 29.4185 33.2783C29.3065 33.181 29.1726 33.1123 29.0282 33.0783L26.8366 32.5618C26.7949 32.5521 26.7567 32.5308 26.7265 32.5005C26.6962 32.4702 26.6751 32.432 26.6655 32.3903C26.6559 32.3486 26.6582 32.305 26.6721 32.2645C26.686 32.224 26.711 32.1883 26.7443 32.1613L28.4866 30.7367C28.6017 30.6427 28.6921 30.5221 28.7502 30.3853C28.8082 30.2485 28.832 30.0996 28.8196 29.9515L28.6325 27.7088C28.6288 27.6661 28.6371 27.6232 28.6566 27.585C28.676 27.5468 28.7058 27.5149 28.7425 27.4928C28.7792 27.4707 28.8214 27.4594 28.8643 27.4601C28.9071 27.4608 28.9489 27.4736 28.9848 27.4969L30.8812 28.7136C31.006 28.7939 31.1485 28.8426 31.2964 28.8555C31.4443 28.8685 31.5931 28.8453 31.7299 28.7879L33.8071 27.9175Z" stroke="url(#paint8_linear_16_11)" stroke-opacity="0.78" stroke-width="2" stroke-linecap="round" stroke-linejoin="round"/>
<defs>
<linearGradient id="paint0_linear_16_11" x1="10.3594" y1="14.3438" x2="89.6484" y2="69.7266" gradientUnits="userSpaceOnUse">
<stop stop-color="#35005E"/>
<stop offset="1" stop-color="#100031"/>
</linearGradient>
<linearGradient id="paint1_linear_16_11" x1="39.4043" y1="51.0333" x2="46.3085" y2="55.5169" gradientUnits="userSpaceOnUse">
<stop stop-color="#FBFBFB"/>
<stop offset="1" stop-color="#B49FFF"/>
</linearGradient>
<linearGradient id="paint2_linear_16_11" x1="42.066" y1="33.3539" x2="47.1343" y2="39.841" gradientUnits="userSpaceOnUse">
<stop stop-color="#FBFBFB"/>
<stop offset="1" stop-color="#B49FFF"/>
</linearGradient>
<linearGradient id="paint3_linear_16_11" x1="57.835" y1="25.3063" x2="58.6955" y2="33.4935" gradientUnits="userSpaceOnUse">
<stop stop-color="#FBFBFB"/>
<stop offset="1" stop-color="#B49FFF"/>
</linearGradient>
<linearGradient id="paint4_linear_16_11" x1="54.7992" y1="46.6046" x2="62.9701" y2="47.6079" gradientUnits="userSpaceOnUse">
<stop stop-color="#FBFBFB"/>
<stop offset="1" stop-color="#B49FFF"/>
</linearGradient>
<linearGradient id="paint5_linear_16_11" x1="73.7389" y1="48.2532" x2="77.855" y2="55.3825" gradientUnits="userSpaceOnUse">
<stop stop-color="#FBFBFB"/>
<stop offset="1" stop-color="#B49FFF"/>
</linearGradient>
<linearGradient id="paint6_linear_16_11" x1="74.5837" y1="29.8589" x2="75.0146" y2="38.0799" gradientUnits="userSpaceOnUse">
<stop stop-color="#FBFBFB"/>
<stop offset="1" stop-color="#B49FFF"/>
</linearGradient>
<linearGradient id="paint7_linear_16_11" x1="26.0615" y1="41.0654" x2="27.7731" y2="49.1178" gradientUnits="userSpaceOnUse">
<stop stop-color="#FBFBFB"/>
<stop offset="1" stop-color="#B49FFF"/>
</linearGradient>
<linearGradient id="paint8_linear_16_11" x1="34.0451" y1="27.9557" x2="28.6442" y2="34.1687" gradientUnits="userSpaceOnUse">
<stop stop-color="#FBFBFB"/>
<stop offset="1" stop-color="#B49FFF"/>
</linearGradient>
</defs>
</svg>
